<svg id="visual" viewBox="0 0 960 540" width="960" height="540" xmlns="http://www.w3.org/2000/svg" xmlns:xlink="http://www.w3.org/1999/xlink" version="1.1"><rect x="0" y="0" width="960" height="540" fill="#000000"></rect><g transform="translate(514.3610983823189 324.5965452277683)"><path d="M136.4 -269.4C145.8 -230.8 101 -131.7 80.3 -76.7C59.5 -21.7 62.8 -10.8 111.8 28.3C160.9 67.5 255.8 135 261.3 163.6C266.8 192.2 182.9 181.8 124.5 140.1C66 114.3 33 57.2 -4.7 65.2C-42.3 73.3 -84.7 146.7 -90.9 150.2C-97.1 153.8 -67.2 87.7 -110.3 51C-153.5 14.3 -269.7 7.2 -311.5 -24.1C-353.2 -55.3 -320.3 -110.7 -263.3 -123.2C-206.2 -135.8 -124.8 -105.6 -76.9 -121.9C-29 -138.2 -14.5 -201.1 24.5 -243.5C63.5 -286 127 -308 136.4 -269.4" fill="#802cff"></path></g></svg>